#!OML:ASF E:/inclinewalkrobotboard/Project1/Captureday1/Session1/subject1.ASF
:FULLY-SPECIFIED
:DEGREES
176
root 0 0 0 -1.2944677347584577 -1.1630968396147694 -4.014075196609168
lowerback 20.14078483227322 2.885439154918676 -0.2167939180597418
upperback 2.0593920815498348 3.890372999551495 -0.35722995396572865
thorax -9.04295102564351 1.8806363094951042 -0.9126285354920222
lowerneck -8.179175215839445 -6.001180892179947 -1.2012327778264151
upperneck -0.29491130634176876 -8.647530471287821 5.512708113571735
head 1.6073151842364517 -3.9641852514061293 1.3822523084097194
rclavicle -7.695768117421588E-16 3.495340273850411E-16
rhumerus 35.19102744078535 -7.263846995369624 -29.23785046653206
rradius 146.75997758147594
rwrist -24.369561477301737
rhand -19.078763565302108 -31.83853688425865
rfingers 7.12501999999996
rthumb 7.247060782488368 -61.6302957133229
lclavicle -2.1525555991466584E-15 8.05993211417909E-16
lhumerus -46.781188194722546 -6.712245443095457 80.61360913561568
lradius 62.17312035817419
lwrist 10.757740900350838
lhand -14.340025866572686 -20.39692158393084
lfingers 7.125019999999876
lthumb 11.73132871041786 9.260039432118235
rfemur -15.230155189328617 6.9082061375470785 33.26350643624632
rtibia 38.08251616895491
rfoot -15.506731689584853 -7.348469315744328
rtoes 10.502884245411888
lfemur -20.866272433469227 3.4590602843241247 -13.797034048849612
ltibia 65.16036473522408
lfoot -0.9335304892020133 -8.381801199794143
ltoes -6.750586586690353
177
root 0 0 0 -1.3621813020155784 -1.2589714590649135 -4.011870958310174
lowerback 19.921897558460017 2.9676858309264667 -0.02785899225756938
upperback 2.1147433852555575 4.004917731008753 -0.45792066951995447
thorax -8.865264817227526 1.9323944673653357 -1.1335223123749347
lowerneck -8.432249730168813 -6.000364725278125 -1.3699653683895394
upperneck -0.7074937499603635 -8.664324273273463 5.7270588550546115
head 1.4688435360016525 -3.967461462949286 1.4786607502138231
rclavicle -8.656522106668304E-16 4.2175674896580667E-16
rhumerus 35.97452655251872 -5.728911036855283 -28.883056315105748
rradius 148.56609078048126
rwrist -24.961393021810643
rhand -19.055535207954556 -31.660659960642143
rfingers 7.125019999999957
rthumb 7.270281629726833 -61.451386418748214
lclavicle -2.2118538779817494E-15 8.313593289740342E-16
lhumerus -46.964446007363264 -6.59669115774298 80.41531119638404
lradius 62.1613647354672
lwrist 10.778037520917122
lhand -14.376267481380976 -20.28523873249796
lfingers 7.125019999999875
lthumb 11.698446358578677 9.37765710194242
rfemur -9.580136822019576 8.268134827970918 34.656302994347435
rtibia 31.266338015001466
rfoot -18.474210718866697 -7.922639725911144
rtoes 8.78587669292141
lfemur -22.08016282531954 3.4737343546430783 -13.743901564549539
ltibia 64.12923126331856
lfoot -1.6427937245850117 -7.619483729746855
ltoes -5.834472471606709
178
root 0 0 0 -1.4143654538299943 -1.348366041823411 -4.009079403963412
lowerback 19.761768741778468 3.0115035980635323 0.08075539406592225
upperback 2.177002494912375 4.066367277392048 -0.5024376367943209
thorax -8.712060607054571 1.9605383879256624 -1.2447637197149384
lowerneck -8.55094604871242 -5.991801796641066 -1.4685900053222507
upperneck -0.837862430527375 -8.658063346066552 5.842494341792284
head 1.417278753556693 -3.9626839877536133 1.53201005676285
rclavicle -9.027376196968545E-16 4.274081827215298E-16
rhumerus 36.38646338548583 -4.646813434945457 -28.86152362950284
rradius 149.65284061900147
rwrist -25.021955726778955
rhand -19.095448184854888 -31.391755300128303
rfingers 7.125019999999954
rthumb 7.232388380631207 -61.18682603916223
lclavicle -2.066099623795043E-15 7.709800819184213E-16
lhumerus -47.165733907189136 -6.43310222623694 80.16458610075335
lradius 62.11289718303627
lwrist 10.798572762751126
lhand -14.43734669763281 -20.12187177696204
lfingers 7.125019999999871
lthumb 11.641120578342386 9.560791763646101
rfemur -4.811202636918673 8.827788160752338 35.39964647979292
rtibia 28.0085451119474
rfoot -20.340338241233386 -8.00697281302366
rtoes 7.469285284949384
lfemur -23.13560073233544 3.3063722904969173 -13.887970539081547
ltibia 62.11997572943173
lfoot -2.1206648283774108 -6.924198243350085
ltoes -4.325515384342424
179
root 0 0 0 -1.4564808880093878 -1.4510851191814926 -4.005052062441401
lowerback 19.701716406877182 3.034971616540375 0.14376027557580917
upperback 2.225399757697716 4.099827891314129 -0.524030238926942
thorax -8.630421974695818 1.9753528244754563 -1.3052015596479118
lowerneck -8.606063552584324 -5.972599460897083 -1.5051008118837934
upperneck -0.9471738267015724 -8.628748808912563 5.877230657308534
head 1.3777243200933462 -3.9498850929778317 1.5513498190425445
rclavicle -9.955868079048007E-16 5.718760201388993E-16
rhumerus 36.61037856596305 -3.9282522200946843 -28.9391079846796
rradius 150.47051003270843
rwrist -24.970007073968596
rhand -19.21044655947034 -31.17473236684475
rfingers 7.125019999999952
rthumb 7.122004940584793 -60.97925066909257
lclavicle -1.875302773681273E-15 8.150138856061377E-16
lhumerus -47.328419320313856 -6.271021985872383 79.93395128344007
lradius 62.05087725798586
lwrist 10.803989342158436
lhand -14.498484877746717 -19.99287853794366
lfingers 7.12501999999987
lthumb 11.584163657430041 9.71409037495356
rfemur -0.9615715669189631 8.994118477146849 35.750267621588435
rtibia 26.509344173126735
rfoot -21.560002057743386 -7.908103448247871
rtoes 6.296486817654238
lfemur -24.786669957375345 2.8261848204883546 -14.501547825918296
ltibia 57.440352540859394
lfoot -2.6974843608224557 -5.830773475795916
ltoes -0.6773996361828694
